<svg xmlns="http://www.w3.org/2000/svg" width="42.424" height="45.178" viewBox="0 0 42.424 45.178"><defs><style>.a{fill:#0f2b3c;}</style></defs><path class="a" d="M66.587,51.743A11.336,11.336,0,0,0,55.264,63.066a11.181,11.181,0,0,0,2.422,6.981c.313.4.641.779.989,1.183l.019.022a11.038,11.038,0,0,1,2.575,4.015,7.025,7.025,0,0,1,.1,1.514v.865A1.433,1.433,0,0,0,62.8,79.079h7.505a1.433,1.433,0,0,0,1.433-1.433v-.875a6.1,6.1,0,0,1,.1-1.4,12.362,12.362,0,0,1,2.718-4.2l.047-.055c.313-.368.609-.716.879-1.058a11.18,11.18,0,0,0,2.425-6.985A11.336,11.336,0,0,0,66.587,51.743Zm6.645,16.535c-.236.3-.514.627-.809.973l-.058.068a14.42,14.42,0,0,0-3.288,5.287,6.453,6.453,0,0,0-.2,1.606H64.234a6.8,6.8,0,0,0-.2-1.7,13.589,13.589,0,0,0-3.171-5.136l-.019-.023c-.326-.378-.634-.735-.907-1.083a8.342,8.342,0,0,1-1.808-5.209,8.456,8.456,0,1,1,16.912,0A8.342,8.342,0,0,1,73.232,68.278Z" transform="translate(-45.375 -41.854)"/><path class="a" d="M96.152,196.91H88.646a1.433,1.433,0,0,0,0,2.867h7.505a1.433,1.433,0,1,0,0-2.867Z" transform="translate(-71.218 -158.573)"/><path class="a" d="M102.217,214.018H98.464a1.433,1.433,0,1,0,0,2.867h3.752a1.433,1.433,0,1,0,0-2.867Z" transform="translate(-79.16 -171.706)"/><path class="a" d="M191,103.491H186.06a1.433,1.433,0,0,0,0,2.867H191a1.433,1.433,0,1,0,0-2.867Z" transform="translate(-150.015 -83.713)"/><path class="a" d="M11.33,104.924A1.433,1.433,0,0,0,9.9,103.491H4.951a1.433,1.433,0,1,0,0,2.867H9.9A1.433,1.433,0,0,0,11.33,104.924Z" transform="translate(-3.518 -83.713)"/><path class="a" d="M108.443,7.813a1.433,1.433,0,0,0,1.433-1.433V1.433a1.433,1.433,0,1,0-2.867,0V6.38A1.433,1.433,0,0,0,108.443,7.813Z" transform="translate(-87.231)"/><path class="a" d="M164.336,158.792a1.433,1.433,0,1,0-2.027,2.027l3.5,3.5a1.433,1.433,0,1,0,2.027-2.027Z" transform="translate(-131.622 -128.105)"/><path class="a" d="M37.747,36.253a1.433,1.433,0,0,0,2.027-2.027l-3.5-3.5a1.433,1.433,0,1,0-2.027,2.027Z" transform="translate(-28.039 -24.518)"/><path class="a" d="M37.748,158.792l-3.5,3.5a1.433,1.433,0,0,0,2.027,2.027l3.5-3.5a1.433,1.433,0,1,0-2.027-2.027Z" transform="translate(-28.038 -128.105)"/><path class="a" d="M163.327,36.673a1.429,1.429,0,0,0,1.014-.42l3.5-3.5a1.433,1.433,0,1,0-2.027-2.027l-3.5,3.5a1.433,1.433,0,0,0,1.013,2.447Z" transform="translate(-131.626 -24.518)"/></svg>